<?xml version="1.0" encoding="UTF-8"?>
<!DOCTYPE svg PUBLIC "-//W3C//DTD SVG 1.1//EN" "http://www.w3.org/Graphics/SVG/1.1/DTD/svg11.dtd">
<!-- Creator: CorelDRAW 2021 (64-Bit) -->
<svg xmlns="http://www.w3.org/2000/svg" xml:space="preserve" width="233px" height="90px" version="1.1" style="shape-rendering:geometricPrecision; text-rendering:geometricPrecision; image-rendering:optimizeQuality; fill-rule:evenodd; clip-rule:evenodd"
viewBox="0 0 32.01 12.41"
 xmlns:xlink="http://www.w3.org/1999/xlink"
 xmlns:xodm="http://www.corel.com/coreldraw/odm/2003">
 <defs>
  <style type="text/css">
   <![CDATA[
    .fil1 {fill:#03A3ED}
    .fil0 {fill:#B3B3B3}
    .fil2 {fill:#999999;fill-rule:nonzero}
   ]]>
  </style>
 </defs>
 <g id="Layer_x0020_1">
  <metadata id="CorelCorpID_0Corel-Layer"/>
  <g id="_2279553320144">
   <g>
    <path class="fil0" d="M18.93 9.76l0 -1.11c0.28,-0.02 0.79,-0.01 1.07,0 0.73,0.03 0.73,1.08 0.02,1.12 -0.26,0.01 -0.83,0.02 -1.09,-0.01zm0 -2.97c0.24,-0.02 0.52,0 0.77,0 0.28,0 0.44,0.02 0.56,0.19 0.19,0.26 0.15,0.85 -0.46,0.85l-0.87 -0.01 0 -1.03zm1.92 1.38c0.27,-0.17 0.48,-0.59 0.43,-1.07 -0.04,-0.44 -0.3,-0.76 -0.56,-0.93 -0.39,-0.25 -0.68,-0.25 -1.23,-0.25 -0.49,0 -0.99,0 -1.49,0l0 4.71c0.55,0 1.09,0 1.64,0 0.57,0 0.96,-0.01 1.32,-0.32 0.27,-0.23 0.53,-0.54 0.5,-1.11 -0.03,-0.74 -0.54,-0.91 -0.61,-1.03z"/>
    <polygon class="fil0" points="13.54,5.34 17.42,5.34 17.42,4.72 14.17,4.72 14.17,0.63 18.26,0.62 18.26,1.27 18.88,1.27 18.88,0 13.54,0 "/>
    <path class="fil0" d="M31.65 7.67c0.05,-0.06 0.3,-0.36 0.32,-0.4 -0.3,-0.01 -0.62,-0.01 -0.92,-0.01 -0.1,0.01 -0.11,0.01 -0.16,0.08 -0.03,0.05 -0.06,0.07 -0.1,0.12 -0.07,0.09 -0.12,0.17 -0.19,0.26l-0.6 0.76c-0.04,0.05 -0.05,0.07 -0.1,0.13l-0.1 0.11c0,0 -0.01,0.01 -0.02,0.01l0 -2.81 -0.86 0 0 4.71c0.18,0 0.71,0.01 0.86,-0.01l0.01 -1.5c0.07,0.04 0.79,0.96 0.94,1.16 0.06,0.06 0.11,0.13 0.15,0.19 0.06,0.07 0.1,0.16 0.2,0.16 0.2,0 0.76,0.02 0.93,-0.01 -0.04,-0.04 -0.06,-0.07 -0.09,-0.11 -0.03,-0.04 -0.05,-0.05 -0.08,-0.09 -0.3,-0.35 -0.78,-0.99 -1.05,-1.29 -0.07,-0.07 -0.12,-0.12 -0.16,-0.22l1.02 -1.24z"/>
    <path class="fil0" d="M26.91 8.02c0.55,-0.07 0.97,0.33 1.02,0.82 0.05,0.55 -0.31,0.98 -0.79,1.03 -1.26,0.14 -1.42,-1.7 -0.23,-1.85zm1.86 1.22c0.14,-1.1 -0.55,-1.9 -1.46,-2.04 -1.07,-0.17 -1.92,0.57 -2.05,1.46 -0.16,1.07 0.58,1.93 1.48,2.04 1.03,0.14 1.92,-0.54 2.03,-1.46z"/>
    <path class="fil0" d="M24.25 9.14c-0.22,1.18 -2.04,0.88 -1.79,-0.4 0.09,-0.46 0.51,-0.81 1.09,-0.7 0.45,0.08 0.81,0.54 0.7,1.1zm-2.66 0c0.1,0.92 0.88,1.68 1.94,1.58 0.94,-0.1 1.69,-0.88 1.6,-1.95 -0.03,-0.28 -0.1,-0.49 -0.21,-0.69 -0.33,-0.59 -0.98,-0.96 -1.75,-0.9 -0.92,0.08 -1.7,0.91 -1.58,1.96z"/>
    <path class="fil1" d="M10.37 8.95c-0.06,-0.71 0.47,-1.29 1.11,-1.32 0.72,-0.04 1.24,0.49 1.3,1.14 0.05,0.69 -0.5,1.3 -1.12,1.32 -0.7,0.04 -1.23,-0.46 -1.29,-1.14zm2.37 -1.44c-0.11,-0.17 -0.58,-0.41 -0.88,-0.47 -0.75,-0.15 -1.46,0.16 -1.86,0.78 -0.17,0.28 -0.29,0.64 -0.29,1.05 0.02,1.28 1.15,2.01 2.16,1.8 0.18,-0.03 0.36,-0.1 0.49,-0.18 0.18,-0.1 0.26,-0.2 0.39,-0.29l0 0.42 0.63 0 0 -3.52 -0.63 0 -0.01 0.41z"/>
    <path class="fil1" d="M15.47 7.64c0.73,-0.13 1.28,0.42 1.38,1.01 0.13,0.75 -0.4,1.33 -0.98,1.43 -0.74,0.13 -1.3,-0.42 -1.4,-1.02 -0.11,-0.69 0.33,-1.3 1,-1.42zm1.36 -0.12c-1.17,-1.12 -3.04,-0.31 -3.03,1.35 0.01,1.69 1.91,2.29 2.87,1.48 0.07,-0.06 0.1,-0.11 0.17,-0.15l0 0.42 0.64 0 0 -3.52 -0.64 0 -0.01 0.42z"/>
    <path class="fil1" d="M1.95 10.62c0,-0.32 0,-0.65 0,-0.97 0,-0.81 -0.13,-1.98 0.88,-2 0.67,-0.01 0.87,0.42 0.89,1.06 0.01,0.63 0,1.28 0,1.91l0.63 0c0,-0.53 0,-1.07 0,-1.61 0,-0.5 0.01,-1.01 -0.23,-1.38 -0.2,-0.31 -0.51,-0.54 -1.03,-0.58 -0.75,-0.07 -0.89,0.24 -1.16,0.43l0 -0.38 -0.6 0 0 3.52 0.62 0z"/>
    <path class="fil1" d="M4.88 9.55c-0.02,0.4 0.28,0.75 0.49,0.88 0.32,0.22 0.66,0.29 1.14,0.26 0.4,-0.03 0.76,-0.22 0.94,-0.44 0.21,-0.27 0.29,-0.72 0.07,-1.05 -0.4,-0.62 -1.63,-0.53 -1.86,-0.91 -0.12,-0.18 -0.03,-0.41 0.07,-0.52 0.27,-0.29 1.22,-0.31 1.28,0.41l0.61 0c-0.1,-1.62 -2.77,-1.31 -2.62,0.01 0.13,1.13 1.96,0.7 2.04,1.44 0.07,0.67 -1.01,0.68 -1.33,0.38l-0.16 -0.19c-0.04,-0.08 -0.06,-0.17 -0.07,-0.27l-0.6 0z"/>
    <polygon class="fil1" points="17.01,2.74 18,2.74 18.01,5.34 18.88,5.34 18.88,1.86 17.01,1.86 "/>
    <path class="fil1" d="M7.94 7.67l0.5 0.01c0.02,0.28 0,2.47 0,2.94l0.63 0 0.01 -2.95 0.49 0 0 -0.57 -0.5 0 0 -1.15 -0.63 0 0 1.15 -0.5 0 0 0.57z"/>
    <polygon class="fil1" points="0,10.62 0.68,10.62 0.68,5.95 0,5.96 "/>
    <path class="fil0" d="M19.82 1.88c-0.66,0.14 -0.43,1.05 0.18,0.93 0.23,-0.04 0.43,-0.28 0.36,-0.58 -0.04,-0.22 -0.28,-0.41 -0.54,-0.35z"/>
    <path class="fil2" d="M18.16 12.16l-0.13 0 0 -0.85 0.13 0 0 0.85zm0.39 -0.63l0.13 0 0 0.07c0.04,-0.06 0.1,-0.09 0.17,-0.09 0.12,0 0.18,0.08 0.18,0.23l0 0.42 -0.13 0 0 -0.41c0,-0.04 -0.01,-0.07 -0.02,-0.09 -0.02,-0.02 -0.04,-0.03 -0.08,-0.03 -0.05,0 -0.09,0.03 -0.12,0.08l0 0.45 -0.13 0 0 -0.63zm0.96 0.43c0,0.03 0.01,0.06 0.03,0.08 0.02,0.02 0.05,0.03 0.09,0.03 0.03,0 0.06,-0.01 0.08,-0.03 0.01,-0.01 0.02,-0.03 0.02,-0.05 0,-0.03 -0.01,-0.05 -0.03,-0.06 -0.02,-0.01 -0.05,-0.03 -0.09,-0.04 -0.05,-0.01 -0.08,-0.02 -0.11,-0.03 -0.07,-0.04 -0.1,-0.09 -0.1,-0.15 0,-0.06 0.02,-0.1 0.06,-0.14 0.05,-0.04 0.1,-0.06 0.16,-0.06 0.07,0 0.13,0.02 0.17,0.06 0.05,0.04 0.07,0.09 0.07,0.15l-0.13 0c0,-0.03 -0.01,-0.05 -0.03,-0.07 -0.02,-0.02 -0.04,-0.03 -0.08,-0.03 -0.02,0 -0.05,0.01 -0.07,0.02 -0.01,0.02 -0.02,0.04 -0.02,0.06 0,0.02 0.01,0.04 0.02,0.05 0.02,0.01 0.05,0.03 0.1,0.04 0.06,0.01 0.1,0.03 0.13,0.04 0.02,0.02 0.05,0.04 0.06,0.06 0.01,0.03 0.02,0.06 0.02,0.09 0,0.06 -0.02,0.1 -0.06,0.14 -0.05,0.03 -0.1,0.05 -0.17,0.05 -0.05,0 -0.09,-0.01 -0.13,-0.03 -0.04,-0.01 -0.07,-0.04 -0.09,-0.07 -0.02,-0.04 -0.03,-0.07 -0.03,-0.11l0.13 0zm0.64 -0.43l0.1 0 0 -0.16 0.13 0 0 0.16 0.1 0 0 0.1 -0.1 0 0 0.36c0,0.02 0,0.04 0.01,0.05 0.01,0.01 0.03,0.01 0.05,0.01 0.01,0 0.03,0 0.05,0l0 0.11c-0.03,0.01 -0.06,0.01 -0.09,0.01 -0.1,0 -0.15,-0.06 -0.15,-0.18l0 -0.36 -0.1 0 0 -0.1zm0.65 0.45c0,-0.07 0.03,-0.12 0.07,-0.15 0.05,-0.04 0.11,-0.06 0.2,-0.06l0.08 0 0 -0.04c0,-0.03 -0.01,-0.06 -0.03,-0.08 -0.01,-0.02 -0.04,-0.03 -0.07,-0.03 -0.03,0 -0.06,0.01 -0.08,0.03 -0.01,0.01 -0.02,0.03 -0.02,0.06l-0.14 0c0,-0.04 0.02,-0.07 0.04,-0.1 0.02,-0.03 0.05,-0.05 0.08,-0.07 0.04,-0.02 0.08,-0.03 0.12,-0.03 0.07,0 0.13,0.02 0.17,0.06 0.04,0.04 0.06,0.09 0.06,0.16l0 0.28c0,0.06 0.01,0.11 0.02,0.14l0 0.01 -0.13 0c-0.01,-0.01 -0.01,-0.03 -0.02,-0.06 -0.04,0.05 -0.09,0.07 -0.15,0.07 -0.06,0 -0.11,-0.02 -0.14,-0.05 -0.04,-0.04 -0.06,-0.08 -0.06,-0.14zm0.13 -0.01c0,0.03 0.01,0.05 0.03,0.06 0.02,0.02 0.04,0.03 0.07,0.03 0.02,0 0.05,-0.01 0.07,-0.02 0.02,-0.02 0.04,-0.03 0.05,-0.06l0 -0.12 -0.07 0c-0.05,0 -0.09,0.01 -0.11,0.03 -0.02,0.02 -0.04,0.04 -0.04,0.08zm0.72 -0.44l0.13 0 0 0.07c0.05,-0.06 0.1,-0.09 0.17,-0.09 0.12,0 0.18,0.08 0.19,0.23l0 0.42 -0.14 0 0 -0.41c0,-0.04 0,-0.07 -0.02,-0.09 -0.02,-0.02 -0.04,-0.03 -0.08,-0.03 -0.05,0 -0.09,0.03 -0.11,0.08l0 0.45 -0.14 0 0 -0.63zm0.8 0l0.09 0 0 -0.16 0.13 0 0 0.16 0.11 0 0 0.1 -0.11 0 0 0.36c0,0.02 0.01,0.04 0.02,0.05 0,0.01 0.02,0.01 0.04,0.01 0.02,0 0.03,0 0.05,0l0 0.11c-0.03,0.01 -0.06,0.01 -0.09,0.01 -0.1,0 -0.15,-0.06 -0.15,-0.18l0 -0.36 -0.09 0 0 -0.1zm1.77 0.31l0 0c0,-0.06 0.01,-0.12 0.04,-0.17 0.02,-0.05 0.05,-0.09 0.09,-0.12 0.04,-0.02 0.09,-0.04 0.14,-0.04 0.08,0 0.14,0.03 0.19,0.09 0.05,0.05 0.08,0.13 0.08,0.22l0 0.03c0,0.06 -0.01,0.12 -0.03,0.17 -0.02,0.05 -0.05,0.08 -0.09,0.11 -0.05,0.03 -0.09,0.04 -0.15,0.04 -0.08,0 -0.14,-0.03 -0.19,-0.09 -0.05,-0.06 -0.08,-0.14 -0.08,-0.24zm0.13 0.01c0,0.06 0.02,0.12 0.04,0.15 0.03,0.04 0.06,0.06 0.1,0.06 0.05,0 0.08,-0.02 0.11,-0.06 0.02,-0.04 0.03,-0.09 0.03,-0.16 0,-0.07 -0.01,-0.12 -0.03,-0.16 -0.03,-0.03 -0.06,-0.05 -0.11,-0.05 -0.04,0 -0.07,0.02 -0.1,0.05 -0.02,0.04 -0.04,0.1 -0.04,0.17zm0.74 -0.01l0 0c0,-0.06 0.01,-0.12 0.03,-0.17 0.03,-0.05 0.06,-0.09 0.1,-0.12 0.04,-0.02 0.09,-0.04 0.14,-0.04 0.08,0 0.14,0.03 0.19,0.09 0.05,0.05 0.08,0.13 0.08,0.22l0 0.03c0,0.06 -0.01,0.12 -0.03,0.17 -0.03,0.05 -0.06,0.08 -0.1,0.11 -0.04,0.03 -0.09,0.04 -0.14,0.04 -0.08,0 -0.15,-0.03 -0.2,-0.09 -0.05,-0.06 -0.07,-0.14 -0.07,-0.24zm0.13 0.01c0,0.06 0.01,0.12 0.04,0.15 0.02,0.04 0.06,0.06 0.1,0.06 0.04,0 0.08,-0.02 0.1,-0.06 0.03,-0.04 0.04,-0.09 0.04,-0.16 0,-0.07 -0.01,-0.12 -0.04,-0.16 -0.02,-0.03 -0.06,-0.05 -0.1,-0.05 -0.04,0 -0.08,0.02 -0.1,0.05 -0.03,0.04 -0.04,0.1 -0.04,0.17zm0.76 0.31l0 -0.9 0.13 0 0 0.52 0.04 -0.06 0.16 -0.19 0.16 0 -0.22 0.26 0.24 0.37 -0.15 0 -0.17 -0.27 -0.06 0.06 0 0.21 -0.13 0zm0.82 0l0 -0.9 0.13 0 0 0.52 0.04 -0.06 0.16 -0.19 0.15 0 -0.21 0.26 0.24 0.37 -0.15 0 -0.18 -0.27 -0.05 0.06 0 0.21 -0.13 0zm0.79 -0.3l0 -0.02c0,-0.06 0.01,-0.12 0.03,-0.17 0.02,-0.05 0.06,-0.09 0.1,-0.11 0.04,-0.03 0.08,-0.05 0.13,-0.05 0.08,0 0.14,0.03 0.18,0.09 0.05,0.05 0.07,0.13 0.07,0.23l0 0.06 -0.38 0c0,0.05 0.02,0.09 0.05,0.12 0.03,0.03 0.06,0.05 0.1,0.05 0.06,0 0.11,-0.03 0.15,-0.08l0.07 0.07c-0.02,0.04 -0.05,0.07 -0.09,0.09 -0.04,0.02 -0.09,0.03 -0.13,0.03 -0.09,0 -0.15,-0.03 -0.2,-0.08 -0.06,-0.06 -0.08,-0.14 -0.08,-0.23zm0.13 -0.08l0.25 0 0 -0.01c0,-0.04 -0.01,-0.08 -0.04,-0.11 -0.02,-0.02 -0.04,-0.03 -0.08,-0.03 -0.04,0 -0.06,0.01 -0.09,0.04 -0.02,0.03 -0.03,0.06 -0.04,0.11zm0.7 0.08l0 -0.02c0,-0.06 0.01,-0.12 0.03,-0.17 0.02,-0.05 0.06,-0.09 0.1,-0.11 0.04,-0.03 0.08,-0.05 0.13,-0.05 0.08,0 0.14,0.03 0.18,0.09 0.05,0.05 0.07,0.13 0.07,0.23l0 0.06 -0.38 0c0,0.05 0.02,0.09 0.05,0.12 0.03,0.03 0.06,0.05 0.1,0.05 0.06,0 0.11,-0.03 0.15,-0.08l0.07 0.07c-0.02,0.04 -0.05,0.07 -0.09,0.09 -0.04,0.02 -0.08,0.03 -0.13,0.03 -0.09,0 -0.15,-0.03 -0.2,-0.08 -0.06,-0.06 -0.08,-0.14 -0.08,-0.23zm0.13 -0.08l0.25 0 0 -0.01c0,-0.04 -0.01,-0.08 -0.03,-0.11 -0.02,-0.02 -0.05,-0.03 -0.09,-0.03 -0.03,0 -0.06,0.01 -0.09,0.04 -0.02,0.03 -0.03,0.06 -0.04,0.11zm0.72 0.62l0 -0.87 0.12 0 0.01 0.06c0.04,-0.05 0.09,-0.08 0.15,-0.08 0.07,0 0.13,0.03 0.17,0.09 0.04,0.06 0.06,0.14 0.06,0.24l0 0.01c0,0.1 -0.02,0.18 -0.06,0.23 -0.04,0.06 -0.1,0.09 -0.17,0.09 -0.06,0 -0.11,-0.02 -0.15,-0.07l0 0.3 -0.13 0zm0.13 -0.42c0.03,0.05 0.06,0.08 0.12,0.08 0.04,0 0.07,-0.02 0.09,-0.06 0.03,-0.03 0.04,-0.09 0.04,-0.16 0,-0.07 -0.01,-0.12 -0.03,-0.15 -0.03,-0.04 -0.06,-0.06 -0.1,-0.06 -0.06,0 -0.09,0.02 -0.12,0.07l0 0.28zm0.87 -0.45l0 0.63 -0.13 0 0 -0.63 0.13 0zm-0.14 -0.17c0,-0.02 0.01,-0.04 0.02,-0.05 0.01,-0.02 0.03,-0.03 0.05,-0.03 0.03,0 0.05,0.01 0.06,0.03 0.01,0.01 0.02,0.03 0.02,0.05 0,0.02 -0.01,0.04 -0.02,0.05 -0.01,0.02 -0.03,0.03 -0.06,0.03 -0.02,0 -0.04,-0.01 -0.05,-0.03 -0.01,-0.01 -0.02,-0.03 -0.02,-0.05zm0.52 0.17l0.12 0 0.01 0.07c0.04,-0.06 0.1,-0.09 0.17,-0.09 0.12,0 0.18,0.08 0.18,0.23l0 0.42 -0.13 0 0 -0.41c0,-0.04 -0.01,-0.07 -0.02,-0.09 -0.02,-0.02 -0.05,-0.03 -0.08,-0.03 -0.05,0 -0.09,0.03 -0.12,0.08l0 0.45 -0.13 0 0 -0.63zm0.83 0.31c0,-0.1 0.02,-0.18 0.06,-0.24 0.05,-0.06 0.1,-0.09 0.17,-0.09 0.07,0 0.12,0.03 0.16,0.08l0.01 -0.06 0.11 0 0 0.61c0,0.08 -0.02,0.15 -0.07,0.2 -0.05,0.05 -0.11,0.07 -0.19,0.07 -0.04,0 -0.08,-0.01 -0.12,-0.03 -0.05,-0.02 -0.08,-0.04 -0.1,-0.07l0.06 -0.09c0.04,0.05 0.09,0.08 0.15,0.08 0.05,0 0.08,-0.02 0.11,-0.04 0.02,-0.03 0.03,-0.06 0.03,-0.11l0 -0.05c-0.03,0.05 -0.08,0.07 -0.15,0.07 -0.07,0 -0.12,-0.03 -0.16,-0.09 -0.05,-0.06 -0.07,-0.14 -0.07,-0.24zm0.17 0.16c0.02,0.04 0.05,0.06 0.1,0.06 0.05,0 0.09,-0.03 0.11,-0.08l0 -0.28c-0.02,-0.05 -0.06,-0.07 -0.11,-0.07 -0.05,0 -0.08,0.02 -0.1,0.06 -0.03,0.03 -0.04,0.09 -0.04,0.16 0,0.06 0.01,0.11 0.04,0.15zm-8.26 -0.74l0.13 0 0 0.33c0.04,-0.05 0.09,-0.08 0.15,-0.08 0.07,0 0.13,0.03 0.17,0.09 0.04,0.06 0.06,0.14 0.06,0.24l0 0.01c0,0.1 -0.02,0.18 -0.06,0.23 -0.04,0.06 -0.1,0.09 -0.17,0.09 -0.07,0 -0.12,-0.02 -0.16,-0.08l0 0.07 -0.12 0 0 -0.9zm0.25 0.8c0.04,0 0.07,-0.02 0.09,-0.05 0.03,-0.04 0.04,-0.09 0.04,-0.15l0 -0.02c0,-0.07 -0.01,-0.12 -0.04,-0.16 -0.02,-0.03 -0.05,-0.05 -0.09,-0.05 -0.06,0 -0.1,0.03 -0.12,0.08l0 0.26c0.02,0.06 0.06,0.09 0.12,0.09z"/>
   </g>
  </g>
 </g>
</svg>
